<svg xmlns="http://www.w3.org/2000/svg" viewBox="0 0 980 958" width="980" height="958" role="img" font-family="-apple-system, BlinkMacSystemFont, 'Segoe UI', 'Noto Sans', 'PingFang SC', 'Hiragino Sans', 'Yu Gothic', 'Malgun Gothic', Roboto, 'Noto Sans CJK SC', 'Source Han Sans SC', 'Microsoft YaHei', 'Kohinoor Devanagari', 'Devanagari Sangam MN', 'Nirmala UI', 'Noto Sans Devanagari', 'Bangla MN', 'Bangla Sangam MN', 'Noto Sans Bengali', 'Geeza Pro', 'Noto Sans Arabic', Arial, sans-serif">
<title>Arquitetura Geral</title>
<desc>Dependências em camadas: aplicação → adaptadores → núcleo → contratos</desc>
<defs>
<marker id="mk-0e7490" viewBox="0 0 10 10" refX="8.5" refY="5" markerWidth="6.5" markerHeight="6.5" orient="auto"><path d="M0,0.6 L9.5,5 L0,9.4 z" fill="#0e7490"/></marker>
<marker id="mk-5b8def" viewBox="0 0 10 10" refX="8.5" refY="5" markerWidth="6.5" markerHeight="6.5" orient="auto"><path d="M0,0.6 L9.5,5 L0,9.4 z" fill="#5b8def"/></marker>
</defs>
<rect width="980" height="958" fill="#ffffff"/>
<text x="40" y="54" font-size="27.0" fill="#0f1e33" font-weight="700">Arquitetura Geral</text>
<text x="40" y="82" font-size="13.5" fill="#6b7c96" font-weight="400">Dependências em camadas: aplicação → adaptadores → núcleo → contratos</text>
<line x1="40.0" y1="100.0" x2="940.0" y2="100.0" stroke="#e8eefa" stroke-width="1.5" stroke-linecap="butt"/>
<rect x="835.9" y="36.0" width="104.1" height="26.0" rx="13" fill="#eef4ff" stroke="#c3d7ff" stroke-width="1.2"/>
<text x="887.937375" y="53" font-size="11.5" fill="#2563eb" font-weight="600" text-anchor="middle">snowflake-php</text>
<rect x="40.0" y="116.0" width="900.0" height="88.0" rx="14" fill="#f8fbff" stroke="#dbe6f5" stroke-width="1.4"/>
<rect x="58.0" y="103.0" width="85.9" height="26.0" rx="13.0" fill="#2563eb"/><text x="100.97200000000001" y="120.32" font-size="12.0" fill="#fff" font-weight="600" text-anchor="middle">Aplicação</text>
<rect x="64.0" y="142.0" width="201.0" height="52.0" rx="10" fill="#ffffff" stroke="#c3d7ff" stroke-width="1.5"/>
<text x="164.5" y="165" font-size="13.0" fill="#0f1e33" font-weight="600" text-anchor="middle">Aplicação Laravel</text>
<text x="164.5" y="183" font-size="11.0" fill="#6b7c96" font-weight="400" text-anchor="middle">Facade · DI</text>
<rect x="281.0" y="142.0" width="201.0" height="52.0" rx="10" fill="#ffffff" stroke="#c3d7ff" stroke-width="1.5"/>
<text x="381.5" y="165" font-size="13.0" fill="#0f1e33" font-weight="600" text-anchor="middle">Aplicação Webman</text>
<text x="381.5" y="183" font-size="11.0" fill="#6b7c96" font-weight="400" text-anchor="middle">Binding no container</text>
<rect x="498.0" y="142.0" width="201.0" height="52.0" rx="10" fill="#ffffff" stroke="#c3d7ff" stroke-width="1.5"/>
<text x="598.5" y="165" font-size="13.0" fill="#0f1e33" font-weight="600" text-anchor="middle">Aplicação ThinkPHP 6+</text>
<text x="598.5" y="183" font-size="11.0" fill="#6b7c96" font-weight="400" text-anchor="middle">Service · Facade</text>
<rect x="715.0" y="142.0" width="201.0" height="52.0" rx="10" fill="#ffffff" stroke="#c3d7ff" stroke-width="1.5"/>
<text x="815.5" y="165" font-size="13.0" fill="#0f1e33" font-weight="600" text-anchor="middle">Aplicação Hyperf</text>
<text x="815.5" y="183" font-size="11.0" fill="#6b7c96" font-weight="400" text-anchor="middle">Injeção no construtor</text>
<path d="M490.0,204.0 L490.0,226.0" fill="none" stroke="#5b8def" stroke-width="2" stroke-linecap="round" marker-end="url(#mk-5b8def)"/>
<text x="500" y="220" font-size="11.0" fill="#6b7c96" font-weight="400">Facade / container resolve a instância de Snowflake</text>
<rect x="40.0" y="232.0" width="900.0" height="108.0" rx="14" fill="#f8fbff" stroke="#dbe6f5" stroke-width="1.4"/>
<rect x="58.0" y="219.0" width="101.9" height="26.0" rx="13.0" fill="#2563eb"/><text x="108.973" y="236.32" font-size="12.0" fill="#fff" font-weight="600" text-anchor="middle">Adaptadores</text>
<rect x="64.0" y="258.0" width="201.0" height="64.0" rx="10" fill="#ffffff" stroke="#c3d7ff" stroke-width="1.5"/>
<text x="78.0" y="279" font-size="12.5" fill="#2563eb" font-weight="700">Laravel</text>
<text x="78.0" y="297" font-size="10.5" fill="#3d4d66" font-weight="400">ServiceProvider + Facade</text>
<text x="78.0" y="313" font-size="10.4" fill="#6b7c96" font-weight="400">Auto-discovery · mergeConfigFrom</text>
<rect x="281.0" y="258.0" width="201.0" height="64.0" rx="10" fill="#ffffff" stroke="#c3d7ff" stroke-width="1.5"/>
<text x="295.0" y="279" font-size="12.5" fill="#2563eb" font-weight="700">Webman</text>
<text x="295.0" y="297" font-size="10.5" fill="#3d4d66" font-weight="400">config/app.php</text>
<text x="295.0" y="313" font-size="10.5" fill="#6b7c96" font-weight="400">Singleton em Worker::$container</text>
<rect x="498.0" y="258.0" width="201.0" height="64.0" rx="10" fill="#ffffff" stroke="#c3d7ff" stroke-width="1.5"/>
<text x="512.0" y="279" font-size="12.5" fill="#2563eb" font-weight="700">ThinkPHP 6+</text>
<text x="512.0" y="297" font-size="10.5" fill="#3d4d66" font-weight="400">Service + Facade</text>
<text x="512.0" y="313" font-size="10.5" fill="#6b7c96" font-weight="400">Registrado em app/service.php</text>
<rect x="715.0" y="258.0" width="201.0" height="64.0" rx="10" fill="#ffffff" stroke="#c3d7ff" stroke-width="1.5"/>
<text x="729.0" y="279" font-size="12.5" fill="#2563eb" font-weight="700">Hyperf</text>
<text x="729.0" y="297" font-size="10.5" fill="#3d4d66" font-weight="400">ConfigProvider</text>
<text x="729.0" y="313" font-size="10.5" fill="#6b7c96" font-weight="400">vendor:publish · binding de DI</text>
<path d="M490.0,340.0 L490.0,362.0" fill="none" stroke="#5b8def" stroke-width="2" stroke-linecap="round" marker-end="url(#mk-5b8def)"/>
<text x="500" y="356" font-size="11.0" fill="#6b7c96" font-weight="400" font-family="'SFMono-Regular', Consolas, 'Liberation Mono', Menlo, 'Courier New', monospace">Snowflake::fromConfig($config)</text>
<rect x="40.0" y="368.0" width="900.0" height="192.0" rx="14" fill="#f3f8ff" stroke="#dbe6f5" stroke-width="1.4"/>
<rect x="58.0" y="355.0" width="68.6" height="26.0" rx="13.0" fill="#2563eb"/><text x="92.27799999999999" y="372.32" font-size="12.0" fill="#fff" font-weight="600" text-anchor="middle">Núcleo</text>
<text x="64" y="398" font-size="12.5" fill="#0f1e33" font-weight="700">Snowflake (src/Snowflake.php) — a única classe com estado</text>
<rect x="64.0" y="412.0" width="273.3" height="58.0" rx="10" fill="#ffffff" stroke="#c3d7ff" stroke-width="1.5"/>
<text x="78.0" y="437" font-size="12.5" fill="#0f1e33" font-weight="600">Constantes e padrões</text>
<text x="78.0" y="457" font-size="10.5" fill="#6b7c96" font-weight="400">DEFAULT_EPOCH · 41/5/5/12 bits</text>
<rect x="353.3" y="412.0" width="273.3" height="58.0" rx="10" fill="#ffffff" stroke="#c3d7ff" stroke-width="1.5"/>
<text x="367.3333333333333" y="437" font-size="12.5" fill="#0f1e33" font-weight="600">Guardas de construção</text>
<text x="367.3333333333333" y="457" font-size="9.4" fill="#6b7c96" font-weight="400">Plataforma 64 bits · contagem de bits · faixa de nós</text>
<rect x="642.7" y="412.0" width="273.3" height="58.0" rx="10" fill="#ffffff" stroke="#c3d7ff" stroke-width="1.5"/>
<text x="656.6666666666666" y="437" font-size="12.5" fill="#0f1e33" font-weight="600">Bits pré-computados</text>
<text x="656.6666666666666" y="457" font-size="10.5" fill="#6b7c96" font-weight="400">shifts · fixedBits · max*</text>
<rect x="64.0" y="486.0" width="273.3" height="58.0" rx="10" fill="#ffffff" stroke="#c3d7ff" stroke-width="1.5"/>
<text x="78.0" y="511" font-size="12.5" fill="#0f1e33" font-weight="600">Geração com id()</text>
<text x="78.0" y="531" font-size="9.3" fill="#6b7c96" font-weight="400">checagem do relógio → sequência → montagem dos bits</text>
<rect x="353.3" y="486.0" width="273.3" height="58.0" rx="10" fill="#ffffff" stroke="#c3d7ff" stroke-width="1.5"/>
<text x="367.3333333333333" y="511" font-size="12.5" fill="#0f1e33" font-weight="600">parseId() / parse()</text>
<text x="367.3333333333333" y="531" font-size="10.5" fill="#6b7c96" font-weight="400">ID de volta a timestamp / nó / sequência</text>
<rect x="642.7" y="486.0" width="273.3" height="58.0" rx="10" fill="#ffffff" stroke="#c3d7ff" stroke-width="1.5"/>
<text x="656.6666666666666" y="511" font-size="12.5" fill="#0f1e33" font-weight="600">fromConfig()</text>
<text x="656.6666666666666" y="531" font-size="10.5" fill="#6b7c96" font-weight="400">array de config → instância (validação estrita)</text>
<path d="M490.0,560.0 L490.0,582.0" fill="none" stroke="#5b8def" stroke-width="2" stroke-linecap="round" marker-end="url(#mk-5b8def)"/>
<text x="500" y="576" font-size="11.0" fill="#6b7c96" font-weight="400">next() delega à estratégia de sequência</text>
<rect x="40.0" y="588.0" width="900.0" height="152.0" rx="14" fill="#f6fdfe" stroke="#dbe6f5" stroke-width="1.4"/>
<rect x="58.0" y="575.0" width="184.6" height="26.0" rx="13.0" fill="#0e7490"/><text x="150.30100000000002" y="592.32" font-size="12.0" fill="#fff" font-weight="600" text-anchor="middle">Contratos e Resolvedores</text>
<rect x="64.0" y="612.0" width="300.0" height="104.0" rx="10" fill="#ffffff" stroke="#a9dcea" stroke-width="1.5"/>
<text x="80" y="638" font-size="13.0" fill="#0e7490" font-weight="700" font-family="'SFMono-Regular', Consolas, 'Liberation Mono', Menlo, 'Courier New', monospace">SequenceResolver</text>
<text x="80" y="658" font-size="10.5" fill="#6b7c96" font-weight="400">Interface do contrato · implementada abaixo</text>
<text x="80" y="682" font-size="10.5" fill="#3d4d66" font-weight="400" font-family="'SFMono-Regular', Consolas, 'Liberation Mono', Menlo, 'Courier New', monospace">next(int $timestamp,</text>
<text x="80" y="698" font-size="10.5" fill="#3d4d66" font-weight="400" font-family="'SFMono-Regular', Consolas, 'Liberation Mono', Menlo, 'Courier New', monospace">     int $maxSequence): ?int</text>
<rect x="400.0" y="612.0" width="540.0" height="32.0" rx="8" fill="#ffffff" stroke="#a9dcea" stroke-width="1.5"/>
<path d="M400.0,628.0 L368.0,628.0" fill="none" stroke="#0e7490" stroke-width="1.8" stroke-linecap="round" marker-end="url(#mk-0e7490)"/>
<text x="414" y="633" font-size="11.5" fill="#3d4d66" text-anchor="start"><tspan fill="#0e7490" font-weight="700">SequentialSequenceResolver</tspan><tspan fill="#6b7c96" font-weight="400"> · sequencial a partir de 0 a cada milissegundo (padrão)</tspan></text>
<rect x="400.0" y="652.0" width="540.0" height="32.0" rx="8" fill="#ffffff" stroke="#a9dcea" stroke-width="1.5"/>
<path d="M400.0,668.0 L368.0,668.0" fill="none" stroke="#0e7490" stroke-width="1.8" stroke-linecap="round" marker-end="url(#mk-0e7490)"/>
<text x="414" y="673" font-size="11.5" fill="#3d4d66" text-anchor="start"><tspan fill="#0e7490" font-weight="700">RandomSequenceResolver</tspan><tspan fill="#6b7c96" font-weight="400"> · início aleatório, depois incrementa</tspan></text>
<rect x="400.0" y="692.0" width="540.0" height="32.0" rx="8" fill="#ffffff" stroke="#a9dcea" stroke-width="1.5"/>
<path d="M400.0,708.0 L368.0,708.0" fill="none" stroke="#0e7490" stroke-width="1.8" stroke-linecap="round" marker-end="url(#mk-0e7490)"/>
<text x="414" y="713" font-size="11.5" fill="#3d4d66" text-anchor="start"><tspan fill="#0e7490" font-weight="700">Implementação própria (ex.: Redis)</tspan><tspan fill="#6b7c96" font-weight="400"> · sequência compartilhada entre processos</tspan></text>
<text x="356" y="668" font-size="10.0" fill="#93a3b8" font-weight="600" text-anchor="end">implementa</text>
<rect x="40.0" y="768.0" width="900.0" height="150.0" rx="14" fill="#fbfcfe" stroke="#dbe6f5" stroke-width="1.4"/>
<rect x="58.0" y="755.0" width="101.9" height="26.0" rx="13.0" fill="#475569"/><text x="108.97300000000001" y="772.32" font-size="12.0" fill="#fff" font-weight="600" text-anchor="middle">Transversal</text>
<text x="64" y="800" font-size="12.0" fill="#0f1e33" font-weight="700">Exceções</text>
<rect x="64.0" y="812.0" width="194.8" height="22.0" rx="11" fill="#f4f7fb"/>
<text x="161.380875" y="827" font-size="10.5" fill="#475569" font-weight="600" text-anchor="middle">SnowflakeException (classe base)</text>
<rect x="266.8" y="812.0" width="122.1" height="22.0" rx="11" fill="#fdeeee"/>
<text x="327.81525" y="827" font-size="10.5" fill="#dc2626" font-weight="600" text-anchor="middle">ClockDriftException</text>
<rect x="64.0" y="838.0" width="170.3" height="22.0" rx="11" fill="#fff6e6"/>
<text x="149.143125" y="853" font-size="10.5" fill="#b45309" font-weight="600" text-anchor="middle">TimestampOverflowException</text>
<rect x="242.3" y="838.0" width="153.0" height="22.0" rx="11" fill="#fff6e6"/>
<text x="318.77475" y="853" font-size="10.5" fill="#b45309" font-weight="600" text-anchor="middle">InvalidWorkerIdException</text>
<rect x="64.0" y="864.0" width="169.1" height="22.0" rx="11" fill="#fff6e6"/>
<text x="148.53674999999998" y="879" font-size="10.5" fill="#b45309" font-weight="600" text-anchor="middle">InvalidDatacenterIdException</text>
<line x1="608.0" y1="792.0" x2="608.0" y2="898.0" stroke="#dbe6f5" stroke-width="1.5" stroke-linecap="butt"/>
<text x="632" y="800" font-size="12.0" fill="#0f1e33" font-weight="700">Configuração</text>
<text x="632" y="822" font-size="10.0" fill="#3d4d66" font-weight="400">config/snowflake.php — cada opção, documentada</text>
<text x="632" y="837" font-size="10.0" fill="#3d4d66" font-weight="400">Cada adaptador traz o mesmo arquivo para você</text>
<text x="632" y="852" font-size="10.0" fill="#3d4d66" font-weight="400">sobrescrever</text>
<text x="632" y="867" font-size="10.0" fill="#3d4d66" font-weight="400">fromConfig() valida na inicialização, então erros</text>
<text x="632" y="882" font-size="10.0" fill="#3d4d66" font-weight="400">aparecem cedo</text>
</svg>
