<svg xmlns="http://www.w3.org/2000/svg" viewBox="0 0 980 930" width="980" height="930" role="img" font-family="-apple-system, BlinkMacSystemFont, 'Segoe UI', 'Noto Sans', 'PingFang SC', 'Hiragino Sans', 'Yu Gothic', 'Malgun Gothic', Roboto, 'Noto Sans CJK SC', 'Source Han Sans SC', 'Microsoft YaHei', 'Kohinoor Devanagari', 'Devanagari Sangam MN', 'Nirmala UI', 'Noto Sans Devanagari', 'Bangla MN', 'Bangla Sangam MN', 'Noto Sans Bengali', 'Geeza Pro', 'Noto Sans Arabic', Arial, sans-serif">
<title>전체 아키텍처</title>
<desc>계층형 의존성: 애플리케이션 → 어댑터 → 코어 → 계약</desc>
<defs>
<marker id="mk-0e7490" viewBox="0 0 10 10" refX="8.5" refY="5" markerWidth="6.5" markerHeight="6.5" orient="auto"><path d="M0,0.6 L9.5,5 L0,9.4 z" fill="#0e7490"/></marker>
<marker id="mk-5b8def" viewBox="0 0 10 10" refX="8.5" refY="5" markerWidth="6.5" markerHeight="6.5" orient="auto"><path d="M0,0.6 L9.5,5 L0,9.4 z" fill="#5b8def"/></marker>
</defs>
<rect width="980" height="930" fill="#ffffff"/>
<text x="40" y="54" font-size="27.0" fill="#0f1e33" font-weight="700">전체 아키텍처</text>
<text x="40" y="82" font-size="13.5" fill="#6b7c96" font-weight="400">계층형 의존성: 애플리케이션 → 어댑터 → 코어 → 계약</text>
<line x1="40.0" y1="100.0" x2="940.0" y2="100.0" stroke="#e8eefa" stroke-width="1.5" stroke-linecap="butt"/>
<rect x="835.9" y="36.0" width="104.1" height="26.0" rx="13" fill="#eef4ff" stroke="#c3d7ff" stroke-width="1.2"/>
<text x="887.937375" y="53" font-size="11.5" fill="#2563eb" font-weight="600" text-anchor="middle">snowflake-php</text>
<rect x="40.0" y="116.0" width="900.0" height="88.0" rx="14" fill="#f8fbff" stroke="#dbe6f5" stroke-width="1.4"/>
<rect x="58.0" y="103.0" width="137.5" height="26.0" rx="13.0" fill="#2563eb"/><text x="126.739" y="120.32" font-size="12.0" fill="#fff" font-weight="600" text-anchor="middle">애플리케이션 계층</text>
<rect x="64.0" y="142.0" width="201.0" height="52.0" rx="10" fill="#ffffff" stroke="#c3d7ff" stroke-width="1.5"/>
<text x="164.5" y="165" font-size="13.0" fill="#0f1e33" font-weight="600" text-anchor="middle">Laravel 애플리케이션</text>
<text x="164.5" y="183" font-size="11.0" fill="#6b7c96" font-weight="400" text-anchor="middle">Facade · DI</text>
<rect x="281.0" y="142.0" width="201.0" height="52.0" rx="10" fill="#ffffff" stroke="#c3d7ff" stroke-width="1.5"/>
<text x="381.5" y="165" font-size="13.0" fill="#0f1e33" font-weight="600" text-anchor="middle">Webman 애플리케이션</text>
<text x="381.5" y="183" font-size="11.0" fill="#6b7c96" font-weight="400" text-anchor="middle">컨테이너 바인딩</text>
<rect x="498.0" y="142.0" width="201.0" height="52.0" rx="10" fill="#ffffff" stroke="#c3d7ff" stroke-width="1.5"/>
<text x="598.5" y="165" font-size="13.0" fill="#0f1e33" font-weight="600" text-anchor="middle">ThinkPHP 6+ 애플리케이션</text>
<text x="598.5" y="183" font-size="11.0" fill="#6b7c96" font-weight="400" text-anchor="middle">Service · Facade</text>
<rect x="715.0" y="142.0" width="201.0" height="52.0" rx="10" fill="#ffffff" stroke="#c3d7ff" stroke-width="1.5"/>
<text x="815.5" y="165" font-size="13.0" fill="#0f1e33" font-weight="600" text-anchor="middle">Hyperf 애플리케이션</text>
<text x="815.5" y="183" font-size="11.0" fill="#6b7c96" font-weight="400" text-anchor="middle">생성자 주입</text>
<path d="M490.0,204.0 L490.0,226.0" fill="none" stroke="#5b8def" stroke-width="2" stroke-linecap="round" marker-end="url(#mk-5b8def)"/>
<text x="500" y="220" font-size="11.0" fill="#6b7c96" font-weight="400">Facade / 컨테이너가 Snowflake 인스턴스를 획득</text>
<rect x="40.0" y="232.0" width="900.0" height="108.0" rx="14" fill="#f8fbff" stroke="#dbe6f5" stroke-width="1.4"/>
<rect x="58.0" y="219.0" width="99.7" height="26.0" rx="13.0" fill="#2563eb"/><text x="107.839" y="236.32" font-size="12.0" fill="#fff" font-weight="600" text-anchor="middle">어댑터 계층</text>
<rect x="64.0" y="258.0" width="201.0" height="64.0" rx="10" fill="#ffffff" stroke="#c3d7ff" stroke-width="1.5"/>
<text x="78.0" y="279" font-size="12.5" fill="#2563eb" font-weight="700">Laravel</text>
<text x="78.0" y="297" font-size="10.5" fill="#3d4d66" font-weight="400">ServiceProvider + Facade</text>
<text x="78.0" y="313" font-size="10.5" fill="#6b7c96" font-weight="400">자동 발견 · mergeConfigFrom</text>
<rect x="281.0" y="258.0" width="201.0" height="64.0" rx="10" fill="#ffffff" stroke="#c3d7ff" stroke-width="1.5"/>
<text x="295.0" y="279" font-size="12.5" fill="#2563eb" font-weight="700">Webman</text>
<text x="295.0" y="297" font-size="10.5" fill="#3d4d66" font-weight="400">config/app.php</text>
<text x="295.0" y="313" font-size="10.5" fill="#6b7c96" font-weight="400">Worker::$container 싱글턴</text>
<rect x="498.0" y="258.0" width="201.0" height="64.0" rx="10" fill="#ffffff" stroke="#c3d7ff" stroke-width="1.5"/>
<text x="512.0" y="279" font-size="12.5" fill="#2563eb" font-weight="700">ThinkPHP 6+</text>
<text x="512.0" y="297" font-size="10.5" fill="#3d4d66" font-weight="400">Service + Facade</text>
<text x="512.0" y="313" font-size="10.5" fill="#6b7c96" font-weight="400">app/service.php에 등록</text>
<rect x="715.0" y="258.0" width="201.0" height="64.0" rx="10" fill="#ffffff" stroke="#c3d7ff" stroke-width="1.5"/>
<text x="729.0" y="279" font-size="12.5" fill="#2563eb" font-weight="700">Hyperf</text>
<text x="729.0" y="297" font-size="10.5" fill="#3d4d66" font-weight="400">ConfigProvider</text>
<text x="729.0" y="313" font-size="10.5" fill="#6b7c96" font-weight="400">vendor:publish · DI 바인딩</text>
<path d="M490.0,340.0 L490.0,362.0" fill="none" stroke="#5b8def" stroke-width="2" stroke-linecap="round" marker-end="url(#mk-5b8def)"/>
<text x="500" y="356" font-size="11.0" fill="#6b7c96" font-weight="400" font-family="'SFMono-Regular', Consolas, 'Liberation Mono', Menlo, 'Courier New', monospace">Snowflake::fromConfig($config)</text>
<rect x="40.0" y="368.0" width="900.0" height="192.0" rx="14" fill="#f3f8ff" stroke="#dbe6f5" stroke-width="1.4"/>
<rect x="58.0" y="355.0" width="87.1" height="26.0" rx="13.0" fill="#2563eb"/><text x="101.539" y="372.32" font-size="12.0" fill="#fff" font-weight="600" text-anchor="middle">코어 계층</text>
<text x="64" y="398" font-size="12.5" fill="#0f1e33" font-weight="700">Snowflake (src/Snowflake.php) — 유일한 상태 보유 클래스</text>
<rect x="64.0" y="412.0" width="273.3" height="58.0" rx="10" fill="#ffffff" stroke="#c3d7ff" stroke-width="1.5"/>
<text x="78.0" y="437" font-size="12.5" fill="#0f1e33" font-weight="600">상수와 기본값</text>
<text x="78.0" y="457" font-size="10.5" fill="#6b7c96" font-weight="400">DEFAULT_EPOCH · 41/5/5/12 비트</text>
<rect x="353.3" y="412.0" width="273.3" height="58.0" rx="10" fill="#ffffff" stroke="#c3d7ff" stroke-width="1.5"/>
<text x="367.3333333333333" y="437" font-size="12.5" fill="#0f1e33" font-weight="600">생성 시 검증</text>
<text x="367.3333333333333" y="457" font-size="10.5" fill="#6b7c96" font-weight="400">64비트 플랫폼 · 비트 수 · 노드 범위</text>
<rect x="642.7" y="412.0" width="273.3" height="58.0" rx="10" fill="#ffffff" stroke="#c3d7ff" stroke-width="1.5"/>
<text x="656.6666666666666" y="437" font-size="12.5" fill="#0f1e33" font-weight="600">사전 계산된 비트 연산</text>
<text x="656.6666666666666" y="457" font-size="10.5" fill="#6b7c96" font-weight="400">시프트 · fixedBits · max*</text>
<rect x="64.0" y="486.0" width="273.3" height="58.0" rx="10" fill="#ffffff" stroke="#c3d7ff" stroke-width="1.5"/>
<text x="78.0" y="511" font-size="12.5" fill="#0f1e33" font-weight="600">id() 생성</text>
<text x="78.0" y="531" font-size="10.5" fill="#6b7c96" font-weight="400">시계 확인 → 시퀀스 → 비트 조립</text>
<rect x="353.3" y="486.0" width="273.3" height="58.0" rx="10" fill="#ffffff" stroke="#c3d7ff" stroke-width="1.5"/>
<text x="367.3333333333333" y="511" font-size="12.5" fill="#0f1e33" font-weight="600">parseId() / parse()</text>
<text x="367.3333333333333" y="531" font-size="10.5" fill="#6b7c96" font-weight="400">ID를 타임스탬프 / 노드 / 시퀀스로 복원</text>
<rect x="642.7" y="486.0" width="273.3" height="58.0" rx="10" fill="#ffffff" stroke="#c3d7ff" stroke-width="1.5"/>
<text x="656.6666666666666" y="511" font-size="12.5" fill="#0f1e33" font-weight="600">fromConfig()</text>
<text x="656.6666666666666" y="531" font-size="10.5" fill="#6b7c96" font-weight="400">설정 배열 → 인스턴스 (엄격 검증)</text>
<path d="M490.0,560.0 L490.0,582.0" fill="none" stroke="#5b8def" stroke-width="2" stroke-linecap="round" marker-end="url(#mk-5b8def)"/>
<text x="500" y="576" font-size="11.0" fill="#6b7c96" font-weight="400">next()는 시퀀스 전략에 위임</text>
<rect x="40.0" y="588.0" width="900.0" height="152.0" rx="14" fill="#f6fdfe" stroke="#dbe6f5" stroke-width="1.4"/>
<rect x="58.0" y="575.0" width="119.0" height="26.0" rx="13.0" fill="#0e7490"/><text x="117.47800000000001" y="592.32" font-size="12.0" fill="#fff" font-weight="600" text-anchor="middle">계약 및 구현체</text>
<rect x="64.0" y="612.0" width="300.0" height="104.0" rx="10" fill="#ffffff" stroke="#a9dcea" stroke-width="1.5"/>
<text x="80" y="638" font-size="13.0" fill="#0e7490" font-weight="700" font-family="'SFMono-Regular', Consolas, 'Liberation Mono', Menlo, 'Courier New', monospace">SequenceResolver</text>
<text x="80" y="658" font-size="10.5" fill="#6b7c96" font-weight="400">계약 인터페이스 · 아래에서 구현</text>
<text x="80" y="682" font-size="10.5" fill="#3d4d66" font-weight="400" font-family="'SFMono-Regular', Consolas, 'Liberation Mono', Menlo, 'Courier New', monospace">next(int $timestamp,</text>
<text x="80" y="698" font-size="10.5" fill="#3d4d66" font-weight="400" font-family="'SFMono-Regular', Consolas, 'Liberation Mono', Menlo, 'Courier New', monospace">     int $maxSequence): ?int</text>
<rect x="400.0" y="612.0" width="540.0" height="32.0" rx="8" fill="#ffffff" stroke="#a9dcea" stroke-width="1.5"/>
<path d="M400.0,628.0 L368.0,628.0" fill="none" stroke="#0e7490" stroke-width="1.8" stroke-linecap="round" marker-end="url(#mk-0e7490)"/>
<text x="414" y="633" font-size="11.5" fill="#3d4d66" text-anchor="start"><tspan fill="#0e7490" font-weight="700">SequentialSequenceResolver</tspan><tspan fill="#6b7c96" font-weight="400"> · 매 밀리초 0부터 순차 (기본)</tspan></text>
<rect x="400.0" y="652.0" width="540.0" height="32.0" rx="8" fill="#ffffff" stroke="#a9dcea" stroke-width="1.5"/>
<path d="M400.0,668.0 L368.0,668.0" fill="none" stroke="#0e7490" stroke-width="1.8" stroke-linecap="round" marker-end="url(#mk-0e7490)"/>
<text x="414" y="673" font-size="11.5" fill="#3d4d66" text-anchor="start"><tspan fill="#0e7490" font-weight="700">RandomSequenceResolver</tspan><tspan fill="#6b7c96" font-weight="400"> · 무작위 시작 후 증가</tspan></text>
<rect x="400.0" y="692.0" width="540.0" height="32.0" rx="8" fill="#ffffff" stroke="#a9dcea" stroke-width="1.5"/>
<path d="M400.0,708.0 L368.0,708.0" fill="none" stroke="#0e7490" stroke-width="1.8" stroke-linecap="round" marker-end="url(#mk-0e7490)"/>
<text x="414" y="713" font-size="11.5" fill="#3d4d66" text-anchor="start"><tspan fill="#0e7490" font-weight="700">사용자 구현 (예: Redis)</tspan><tspan fill="#6b7c96" font-weight="400"> · 프로세스 간 시퀀스 공유</tspan></text>
<text x="356" y="668" font-size="10.0" fill="#93a3b8" font-weight="600" text-anchor="end">구현</text>
<rect x="40.0" y="768.0" width="900.0" height="122.0" rx="14" fill="#fbfcfe" stroke="#dbe6f5" stroke-width="1.4"/>
<rect x="58.0" y="755.0" width="99.7" height="26.0" rx="13.0" fill="#475569"/><text x="107.839" y="772.32" font-size="12.0" fill="#fff" font-weight="600" text-anchor="middle">횡단 관심사</text>
<text x="64" y="800" font-size="12.0" fill="#0f1e33" font-weight="700">예외</text>
<rect x="64.0" y="812.0" width="193.8" height="22.0" rx="11" fill="#f4f7fb"/>
<text x="160.88475" y="827" font-size="10.5" fill="#475569" font-weight="600" text-anchor="middle">SnowflakeException (기반 클래스)</text>
<rect x="265.8" y="812.0" width="122.1" height="22.0" rx="11" fill="#fdeeee"/>
<text x="326.823" y="827" font-size="10.5" fill="#dc2626" font-weight="600" text-anchor="middle">ClockDriftException</text>
<rect x="64.0" y="838.0" width="170.3" height="22.0" rx="11" fill="#fff6e6"/>
<text x="149.143125" y="853" font-size="10.5" fill="#b45309" font-weight="600" text-anchor="middle">TimestampOverflowException</text>
<rect x="242.3" y="838.0" width="153.0" height="22.0" rx="11" fill="#fff6e6"/>
<text x="318.77475" y="853" font-size="10.5" fill="#b45309" font-weight="600" text-anchor="middle">InvalidWorkerIdException</text>
<rect x="64.0" y="864.0" width="169.1" height="22.0" rx="11" fill="#fff6e6"/>
<text x="148.53674999999998" y="879" font-size="10.5" fill="#b45309" font-weight="600" text-anchor="middle">InvalidDatacenterIdException</text>
<line x1="608.0" y1="792.0" x2="608.0" y2="872.0" stroke="#dbe6f5" stroke-width="1.5" stroke-linecap="butt"/>
<text x="632" y="800" font-size="12.0" fill="#0f1e33" font-weight="700">설정</text>
<text x="632" y="822" font-size="11.0" fill="#3d4d66" font-weight="400">config/snowflake.php — 모든 옵션에 주석 포함</text>
<text x="632" y="839" font-size="11.0" fill="#3d4d66" font-weight="400">각 어댑터가 재정의용으로 같은 파일 제공</text>
<text x="632" y="856" font-size="11.0" fill="#3d4d66" font-weight="400">fromConfig()가 부팅 시 검증해 실수를 조기에 발견</text>
</svg>
